<svg xmlns="http://www.w3.org/2000/svg" viewBox="0 0 64 64">
  <defs>
    <linearGradient id="a" x1="0%" y1="0%" x2="100%" y2="100%">
      <stop offset="0%" stop-color="#3b82f6"/>
      <stop offset="55%" stop-color="#06b6d4"/>
      <stop offset="100%" stop-color="#8b5cf6"/>
    </linearGradient>
  </defs>
  <rect width="64" height="64" rx="14" fill="url(#a)"/>
  <circle cx="32" cy="32" r="18" fill="none" stroke="#fff" stroke-width="4"/>
  <path d="M14 32h36M32 14c6 6.4 9 12.4 9 18s-3 11.6-9 18M32 14c-6 6.4-9 12.4-9 18s3 11.6 9 18" fill="none" stroke="#fff" stroke-width="3" stroke-linecap="round"/>
  <path d="M19 23c3.6 2 8 3 13 3s9.4-1 13-3M19 41c3.6-2 8-3 13-3s9.4 1 13 3" fill="none" stroke="#fff" stroke-width="2.5" stroke-linecap="round" opacity=".85"/>
</svg>
